<svg width="66" height="65" viewBox="0 0 66 65" fill="none" xmlns="http://www.w3.org/2000/svg">
<path d="M8.65573 25.0004V41.0004C8.65573 46.7881 8.21128 46.3148 13.6557 50.0004L28.6557 59.0004C30.9152 60.3108 35.4235 60.3108 37.6557 59.0004L52.6557 50.0004C58.1002 46.3148 57.6557 46.7608 57.6557 41.0004V25.0004C57.6557 19.24 58.1002 19.6859 52.6557 16.0004L37.6557 7.00039C35.4235 5.68997 30.9152 5.68997 28.6557 7.00039L13.6557 16.0004C8.21128 19.6859 8.65573 19.24 8.65573 25.0004Z" stroke="#BA7DCC" stroke-width="2.9125" stroke-linecap="round" stroke-linejoin="round"/>
<path d="M32.6558 40C37.074 40 40.6558 36.4183 40.6558 32C40.6558 27.5817 37.074 24 32.6558 24C28.2375 24 24.6558 27.5817 24.6558 32C24.6558 36.4183 28.2375 40 32.6558 40Z" stroke="#6739B7" stroke-width="2.9125" stroke-linecap="round" stroke-linejoin="round"/>
</svg>
